<svg id="Group_2" data-name="Group 2" xmlns="http://www.w3.org/2000/svg" width="844.675" height="595.262" viewBox="0 0 844.675 595.262">
  <circle id="Ellipse_28" data-name="Ellipse 28" cx="46" cy="46" r="46" transform="translate(385.393 502)" fill="#118bf1"/>
  <path id="Path_33" data-name="Path 33" d="M883.862,743.785c25.734-7.729,53.094-15.788,73.5-34.161,18.238-16.418,30.55-41.489,22.995-66.112-7.54-24.572-30.124-40.956-53.442-49.105-13.225-4.622-27.061-7.186-40.891-9.2-15.035-2.19-30.136-3.984-45.23-5.71q-91.677-10.486-184.044-12.811c-30.385-.765-60.764-.747-91.152-.306-27.139.394-55.722.384-80.9-11.151-19.578-8.97-37.348-25.289-42.8-46.733-6.3-24.755,5.318-49.964,21.98-67.892,8.783-9.45,19.047-17.4,29.636-24.717C505,407.952,516.889,400.58,529.035,393.7A494.644,494.644,0,0,1,603.8,359.23c12.746-4.635,25.68-8.633,38.728-12.322,11.017-3.115,22.068-6.234,32.716-10.478,20.583-8.2,40.161-22.1,45.395-44.881,4.96-21.591-3.4-45.031-18.065-61.071-16.963-18.557-42.539-26.692-67.06-28.008-27.528-1.478-54.422,5.412-80.3,14.156-27.6,9.326-54.6,20.049-82.778,27.6a556.953,556.953,0,0,1-85.2,15.836c-14.082,1.5-28.59,3.193-42.756,2.045-11.872-.962-23.684-4.454-32.434-12.88-7.5-7.225-11.972-17.154-10.435-27.632.279-1.9,3.17-1.094,2.893.8-1.87,12.755,6.8,24.509,17.484,30.529,12.348,6.958,27.374,6.968,41.122,6.172a537.832,537.832,0,0,0,88.515-12.8c28.592-6.531,56.164-15.866,83.7-25.839,26.156-9.472,52.9-18.716,80.84-20.767,24.246-1.78,49.752,1.752,70.874,14.423,18.564,11.136,32.215,29.707,36.565,51.018,4.25,20.825-1.636,41.785-17.4,56.317-16.321,15.046-38.7,21.479-59.557,27.4-26.452,7.514-52.337,16.3-77.393,27.7a485.833,485.833,0,0,0-72.8,40.928c-22.246,15.2-44.2,34.331-51.237,61.451-3.277,12.633-2.672,26.032,2.812,37.965,4.876,10.61,12.907,19.535,22.262,26.419,22.321,16.424,50.453,19.8,77.414,20.132,30.281.377,60.564-.645,90.855-.148q92.6,1.52,184.819,11.273,23.108,2.446,46.158,5.407c13.822,1.776,27.69,3.541,41.279,6.695,24.162,5.608,47.674,16.392,62.692,36.878a61.32,61.32,0,0,1,11.947,30.446c1.051,11.524-1.77,23.069-6.98,33.321-11.532,22.69-33.134,37.123-56.073,46.6-12.287,5.079-25.032,8.926-37.752,12.746-1.853.557-2.645-2.338-.8-2.893Z" transform="translate(-177.662 -152.369)" fill="#f2f2f2"/>
  <circle id="Ellipse_29" data-name="Ellipse 29" cx="24" cy="24" r="24" transform="translate(101.893 45.5)" fill="#f2f2f2"/>
  <circle id="Ellipse_30" data-name="Ellipse 30" cx="24" cy="24" r="24" transform="translate(268.393 91)" fill="#f2f2f2"/>
  <circle id="Ellipse_31" data-name="Ellipse 31" cx="24" cy="24" r="24" transform="translate(409.393)" fill="#f2f2f2"/>
  <circle id="Ellipse_32" data-name="Ellipse 32" cx="24" cy="24" r="24" transform="translate(497.393 102)" fill="#f2f2f2"/>
  <circle id="Ellipse_33" data-name="Ellipse 33" cx="24" cy="24" r="24" transform="translate(378.393 220)" fill="#f2f2f2"/>
  <circle id="Ellipse_34" data-name="Ellipse 34" cx="24" cy="24" r="24" transform="translate(227.393 277)" fill="#f2f2f2"/>
  <circle id="Ellipse_35" data-name="Ellipse 35" cx="24" cy="24" r="24" transform="translate(387.393 366)" fill="#f2f2f2"/>
  <circle id="Ellipse_36" data-name="Ellipse 36" cx="24" cy="24" r="24" transform="translate(559.393 416)" fill="#f2f2f2"/>
  <circle id="Ellipse_37" data-name="Ellipse 37" cx="24" cy="24" r="24" transform="translate(760.393 405)" fill="#f2f2f2"/>
  <path id="Path_34" data-name="Path 34" d="M604.128,220.373c-71.892.508-130.756,58.93-131.777,130.816-.009.664-.014,5.33-.013,11.434a33.747,33.747,0,0,0,33.742,33.746h0a33.767,33.767,0,0,0,33.761-33.79c0-4.16-.005-7.033-.005-7.21a64,64,0,1,1,98.52,53.879l.012.014S590.341,440.182,575.7,482.6l.012,0a94.007,94.007,0,0,0-3.874,26.768c0,3.725.219,36.321.643,62.778a34.786,34.786,0,0,0,34.79,34.222h0a34.8,34.8,0,0,0,34.794-35.011c-.147-24.229-.227-52.442-.227-54.489,0-26.045,25.125-51.995,45.764-68.917,23.766-19.487,40.868-46.043,47.737-76a86.761,86.761,0,0,0,2.5-18.833A132.75,132.75,0,0,0,604.128,220.373Z" transform="translate(-177.662 -152.369)" fill="#118bf1"/>
  <path id="Path_35" data-name="Path 35" d="M1021.15,747.631h-842.3a1.191,1.191,0,0,1,0-2.381h842.294a1.191,1.191,0,0,1,0,2.381Z" transform="translate(-177.662 -152.369)" fill="#3f3d56"/>
  <circle id="Ellipse_38" data-name="Ellipse 38" cx="30" cy="30" r="30" transform="translate(598.449 212.996)" fill="#2f2e41"/>
  <path id="Path_36" data-name="Path 36" d="M573.012,582.129H560.753l-5.833-47.288h18.1Z" fill="#a0616a"/>
  <path id="Path_37" data-name="Path 37" d="M552,578.626H575.64v14.887H537.109A14.887,14.887,0,0,1,552,578.626Z" fill="#2f2e41"/>
  <path id="Path_38" data-name="Path 38" d="M668.012,582.129H655.753l-5.833-47.288h18.1Z" fill="#a0616a"/>
  <path id="Path_39" data-name="Path 39" d="M647,578.626H670.64v14.887H632.109A14.887,14.887,0,0,1,647,578.626Z" fill="#2f2e41"/>
  <circle id="Ellipse_39" data-name="Ellipse 39" cx="24.561" cy="24.561" r="24.561" transform="translate(599.329 224.049)" fill="#a0616a"/>
  <path id="Path_40" data-name="Path 40" d="M816.191,504.775l10.99-25.25a31.383,31.383,0,0,0-6.95-35.6,31.879,31.879,0,0,0-3.07-2.67,30.935,30.935,0,0,0-18.99-6.57,32.179,32.179,0,0,0-13.4,2.98c-.36.16-.71.33-1.07.5-.69.33-1.37.69-2.03,1.06a31.678,31.678,0,0,0-15.7,23.88l-4.85,40.64c-1.22,3.19-44.74,118.39-29.519,206.34a4.467,4.467,0,0,0,3.82,3.67l15.43,2.1a4.5,4.5,0,0,0,5.01-3.53l25.89-123.41a3.5,3.5,0,0,1,6.8-.23l36.58,129.78a4.471,4.471,0,0,0,4.31,3.28,5.123,5.123,0,0,0,.87-.08l18.85-3.63a4.471,4.471,0,0,0,3.63-4.81C850.021,682.335,835.3,527.6,816.191,504.775Z" transform="translate(-177.662 -152.369)" fill="#2f2e41"/>
  <path id="Path_41" data-name="Path 41" d="M706.1,421.419a10.056,10.056,0,0,0,10.594,11.2l13.729,32.992L740.81,450.22,726.18,421.25a10.11,10.11,0,0,0-20.079.169Z" transform="translate(-177.662 -152.369)" fill="#a0616a"/>
  <path id="Path_42" data-name="Path 42" d="M800.19,538a10.056,10.056,0,0,0,8.427-12.913L837.5,504.044l-17.39-6.512-24.764,20.977A10.11,10.11,0,0,0,800.19,538Z" transform="translate(-177.662 -152.369)" fill="#a0616a"/>
  <path id="Path_43" data-name="Path 43" d="M753.1,487.61a17.056,17.056,0,0,1-3.3-.325,16.305,16.305,0,0,1-11.948-9.616l-19.234-23.453a4.5,4.5,0,0,1,1.111-6.681l13.684-8.471a4.5,4.5,0,0,1,6.215,1.49l13.556,22.334L779.15,443.7a9.721,9.721,0,0,1,11.31,15.562L764.548,482.9A16.253,16.253,0,0,1,753.1,487.61Z" transform="translate(-177.662 -152.369)" fill="#2f2e41"/>
  <path id="Path_44" data-name="Path 44" d="M823.252,522.883h-.106a4.508,4.508,0,0,1-3.311-1.57l-12.166-14.193a4.5,4.5,0,0,1,.92-6.673l22.782-15.188-20.638-24.812a9.721,9.721,0,0,1,14.887-12.183L850.7,472.776a16.525,16.525,0,0,1-3.675,26.94l-20.5,21.754a4.508,4.508,0,0,1-3.275,1.413Z" transform="translate(-177.662 -152.369)" fill="#2f2e41"/>
  <path id="Path_45" data-name="Path 45" d="M795.307,470.584a4.627,4.627,0,0,1-.583-.037,4.461,4.461,0,0,1-3.711-3.069l-9.142-28.029a3.083,3.083,0,0,1,1.594-3.725l.3-.14c.269-.128.535-.254.807-.375a32.574,32.574,0,0,1,13.6-3.023,31.327,31.327,0,0,1,17.161,5.157,3.13,3.13,0,0,1,.9,4.294L799.084,468.5a4.455,4.455,0,0,1-3.777,2.08Z" transform="translate(-177.662 -152.369)" fill="#e6e6e6"/>
  <circle id="Ellipse_40" data-name="Ellipse 40" cx="9.817" cy="9.817" r="9.817" transform="translate(642.284 209.969)" fill="#2f2e41"/>
  <path id="Path_46" data-name="Path 46" d="M796.111,361.365h0a26,26,0,0,0-26,26v11H783.64l6.471-11,1.941,11h41.059l-11-11a26,26,0,0,0-26-26Z" transform="translate(-177.662 -152.369)" fill="#2f2e41"/>
  <path id="Path_47" data-name="Path 47" d="M834.809,365.431a15.15,15.15,0,0,1,16.481-10.4c6.256,1.046,11.2,6.075,14.149,11.691s4.308,11.9,6.289,17.928,4.791,12.084,9.793,15.984,12.677,4.958,17.59.946a20.118,20.118,0,0,1-37.477,7.181c-2.592-4.612-3.261-10.017-4.03-15.251s-1.767-10.65-4.862-14.94-8.888-7.093-13.8-5.139Z" transform="translate(-177.662 -152.369)" fill="#2f2e41"/>
  <path id="Path_48" data-name="Path 48" d="M515.609,380.408h0a33.747,33.747,0,0,1-33.744-33.742c0-6.108,0-10.774.013-11.438a131.506,131.506,0,0,1,15.359-59.909,131.8,131.8,0,0,0-25.359,75.909c-.009.664-.014,5.33-.013,11.434a33.748,33.748,0,0,0,33.742,33.746h0A33.773,33.773,0,0,0,538.1,371.817a33.623,33.623,0,0,1-22.488,8.591Z" transform="translate(-177.662 -152.369)" fill="#3f3d56"/>
  <path id="Path_49" data-name="Path 49" d="M606.415,291.478a64,64,0,0,1,55.659,89.413,64,64,0,1,0-107.426-66.985,63.871,63.871,0,0,1,51.767-22.428Z" transform="translate(-177.662 -152.369)" fill="#3f3d56"/>
  <path id="Path_50" data-name="Path 50" d="M616.8,590.408h0a34.789,34.789,0,0,1-34.79-34.23c-.423-26.449-.642-59.045-.642-62.77a94,94,0,0,1,3.874-26.768l-.012,0a95.053,95.053,0,0,1,5.494-12.7,110.051,110.051,0,0,0-15.494,28.7l.012,0a94.007,94.007,0,0,0-3.874,26.768c0,3.725.219,36.321.643,62.778a34.787,34.787,0,0,0,34.79,34.222h0a34.8,34.8,0,0,0,33.4-25.043A34.66,34.66,0,0,1,616.8,590.408Z" transform="translate(-177.662 -152.369)" fill="#3f3d56"/>
  <path id="Path_51" data-name="Path 51" d="M126.541,582.585H138.8l5.833-47.288H126.538Z" fill="#ffb8b8"/>
  <path id="Path_52" data-name="Path 52" d="M301.576,731.451h38.531v14.887H316.463a14.887,14.887,0,0,1-14.887-14.887Z" transform="translate(464.054 1325.404) rotate(179.997)" fill="#2f2e41"/>
  <path id="Path_53" data-name="Path 53" d="M82.541,582.585H94.8l5.833-47.288h-18.1Z" fill="#ffb8b8"/>
  <path id="Path_54" data-name="Path 54" d="M257.576,731.451h38.531v14.887H272.463a14.887,14.887,0,0,1-14.887-14.887Z" transform="translate(376.054 1325.406) rotate(179.997)" fill="#2f2e41"/>
  <path id="Path_55" data-name="Path 55" d="M270.917,720.411l-11.975-.63a4.674,4.674,0,0,1-4.419-4.967l14.313-158.466,65.911,17.786,6.35-1.732L321.239,712.686a4.7,4.7,0,0,1-4.358,3.945l-12.909.6a4.674,4.674,0,0,1-4.931-4.8l2.339-84.2a1.558,1.558,0,0,0-3.083-.36l-22.557,88.812a4.646,4.646,0,0,1-4.569,3.725C271.086,720.418,271,720.416,270.917,720.411Z" transform="translate(-177.662 -152.369)" fill="#2f2e41"/>
  <circle id="Ellipse_41" data-name="Ellipse 41" cx="24.561" cy="24.561" r="24.561" transform="translate(104.181 225.198)" fill="#ffb8b8"/>
  <path id="Path_56" data-name="Path 56" d="M265.512,474.287l2.7,58.268.976,21.2a4.642,4.642,0,0,0,3.074,4.175L335.6,580.872a4.475,4.475,0,0,0,1.6.281,4.643,4.643,0,0,0,4.664-4.788l-2.6-104.767a36.93,36.93,0,0,0-30.744-35.677c-.613-.093-1.236-.187-1.859-.27a36.25,36.25,0,0,0-29.165,9.441,37.236,37.236,0,0,0-11.986,29.2Z" transform="translate(-177.662 -152.369)" fill="#ccc"/>
  <path id="Path_57" data-name="Path 57" d="M365.855,569.245a10.064,10.064,0,0,1-5.369-15.227l-21.478-28.56,18.534-1.147,17.554,27.3a10.111,10.111,0,0,1-9.242,17.637Z" transform="translate(-177.662 -152.369)" fill="#ffb8b8"/>
  <path id="Path_58" data-name="Path 58" d="M350.753,548.85a4.644,4.644,0,0,1-2.541-2.518l-32.358-77.094a12.463,12.463,0,1,1,22.984-9.647l32.358,77.1a4.679,4.679,0,0,1-2.5,6.118l-14.365,6.029a4.641,4.641,0,0,1-3.577.017Z" transform="translate(-177.662 -152.369)" fill="#ccc"/>
  <path id="Path_59" data-name="Path 59" d="M298.508,546.131l31.079-59.509a4.878,4.878,0,0,1,6.575-2.063l45.112,23.56a4.878,4.878,0,0,1,2.063,6.575L352.258,574.2a4.878,4.878,0,0,1-6.575,2.063l-45.112-23.56a4.878,4.878,0,0,1-2.063-6.575Z" transform="translate(-177.662 -152.369)" fill="#3f3d56"/>
  <path id="Path_60" data-name="Path 60" d="M319.351,518.943a10.064,10.064,0,0,0-15.517-4.46l-29.779-19.754L274,513.3,302.29,529.21a10.111,10.111,0,0,0,17.06-10.267Z" transform="translate(-177.662 -152.369)" fill="#ffb8b8"/>
  <path id="Path_61" data-name="Path 61" d="M281.7,523.119l-24.337-19.278a17.163,17.163,0,0,1-7.823-27.135l22.1-28.96a10.1,10.1,0,0,1,17.13,10.284l-17.484,28.6,25.694,12.187a4.674,4.674,0,0,1,1.948,6.72l-10.372,16.414a4.682,4.682,0,0,1-3.167,2.111l-.077.012A4.7,4.7,0,0,1,281.7,523.119Z" transform="translate(-177.662 -152.369)" fill="#ccc"/>
  <path id="Path_62" data-name="Path 62" d="M287.845,418.574a2.135,2.135,0,0,1,1.856-2.819,4.931,4.931,0,0,1,3.476,1.715,13.835,13.835,0,0,0,3.071,2.637c1.188.6,2.8.514,3.477-.628.636-1.072.2-2.508-.185-3.753a36.905,36.905,0,0,1-1.63-9.77c-.111-3.7.411-7.562,2.46-10.448,2.644-3.725,7.371-5.139,11.845-5.036s8.875,1.484,13.307,2.357c1.53.3,3.328.456,4.352-.73,1.088-1.261.688-3.3.226-5-1.2-4.417-2.475-8.985-5.265-12.552a18.9,18.9,0,0,0-12.061-6.79,28.939,28.939,0,0,0-13.462,1.528A36.1,36.1,0,0,0,281.629,381.6a29.236,29.236,0,0,0-5.578,21.6,26.667,26.667,0,0,0,9.886,16.855Z" transform="translate(-177.662 -152.369)" fill="#2f2e41"/>
  <path id="Path_63" data-name="Path 63" d="M598.92,735.149a45.994,45.994,0,0,1-17.07-71.489,46,46,0,1,0,62.569,66.464,45.969,45.969,0,0,1-45.5,5.025Z" transform="translate(-177.662 -152.369)" fill="#3f3d56"/>
</svg>
