<svg xmlns="http://www.w3.org/2000/svg" width="727.109" height="457.016" viewBox="0 0 727.109 457.016">
  <g id="Group_3" data-name="Group 3" transform="translate(0 0)">
    <path id="Path_66" data-name="Path 66" d="M1093.022,360.963h-1.228v-33.64a19.47,19.47,0,0,0-19.47-19.47h-71.272a19.47,19.47,0,0,0-19.47,19.47V511.876a19.47,19.47,0,0,0,19.47,19.47h71.271a19.47,19.47,0,0,0,19.47-19.47V384.909h1.228Z" transform="translate(-365.913 -173.263)" fill="#3f3d56"/>
    <path id="Path_67" data-name="Path 67" d="M1090.412,331.589V515.873a14.543,14.543,0,0,1-14.541,14.542h-71.615a14.537,14.537,0,0,1-14.536-14.541V331.589a14.536,14.536,0,0,1,14.535-14.536h8.688a6.911,6.911,0,0,0,6.4,9.514h40.832a6.9,6.9,0,0,0,6.4-9.514h9.3a14.541,14.541,0,0,1,14.542,14.536Z" transform="translate(-368.674 -176.384)" fill="#d0cde1"/>
    <path id="Path_86" data-name="Path 86" d="M0,0H83.249V22.464H0Z" transform="translate(624.931 235.018)" fill="#2699fb"/>
    <path id="Path_68" data-name="Path 68" d="M1084.188,475.638h-80.606a1.984,1.984,0,0,1-1.982-1.982V453.835a1.984,1.984,0,0,1,1.982-1.982h80.606a1.985,1.985,0,0,1,1.982,1.982v19.821A1.984,1.984,0,0,1,1084.188,475.638Zm-80.606-22.464a.661.661,0,0,0-.661.661v19.821a.661.661,0,0,0,.661.661h80.606a.661.661,0,0,0,.661-.661V453.835a.661.661,0,0,0-.661-.661Z" transform="translate(-372.705 -222.121)" fill="#3f3d56"/>
    <rect id="Rectangle_11" data-name="Rectangle 11" width="10.571" height="1.321" transform="translate(634.181 247.572)" fill="#3f3d56"/>
    <rect id="Rectangle_12" data-name="Rectangle 12" width="10.571" height="1.321" transform="translate(648.716 247.572)" fill="#3f3d56"/>
    <rect id="Rectangle_13" data-name="Rectangle 13" width="10.571" height="1.321" transform="translate(663.251 247.572)" fill="#3f3d56"/>
    <rect id="Rectangle_14" data-name="Rectangle 14" width="10.571" height="1.321" transform="translate(677.787 247.572)" fill="#3f3d56"/>
    <rect id="Rectangle_15" data-name="Rectangle 15" width="10.571" height="1.321" transform="translate(692.323 247.572)" fill="#3f3d56"/>
    <path id="Path_69" data-name="Path 69" d="M1090.412,554.971v18.738a14.543,14.543,0,0,1-14.541,14.542h-71.615a14.537,14.537,0,0,1-14.536-14.54v-86.2Z" transform="translate(-368.674 -234.22)" opacity="0.1"/>
    <rect id="Rectangle_16" data-name="Rectangle 16" width="312.515" height="153.284" transform="translate(65.973 303.732)" fill="#d0cde1"/>
    <path id="Path_70" data-name="Path 70" d="M382.666,717.137H150.922a1.325,1.325,0,0,1-1.321-1.321V565.174a1.325,1.325,0,0,1,1.321-1.321h2.934Z" transform="translate(-83.628 -260.122)" opacity="0.1"/>
    <rect id="Rectangle_17" data-name="Rectangle 17" width="484.299" height="1.321" transform="translate(210.667 324.214)" fill="#3f3d56"/>
    <path id="Path_71" data-name="Path 71" d="M420.856,107H282.444v-2.853H219.683V107H80.7a9.362,9.362,0,0,0-9.362,9.362V305.89a9.363,9.363,0,0,0,9.363,9.363H420.856a9.363,9.363,0,0,0,9.363-9.363V116.362A9.363,9.363,0,0,0,420.855,107Z" transform="translate(-57.075 -104.147)" fill="#3f3d56"/>
    <rect id="Rectangle_18" data-name="Rectangle 18" width="333.77" height="188.288" transform="translate(26.819 19.396)" fill="#d0cde1"/>
    <circle id="Ellipse_42" data-name="Ellipse 42" cx="3.423" cy="3.423" r="3.423" transform="translate(189.995 7.417)" fill="#2699fb"/>
    <path id="Path_72" data-name="Path 72" d="M235.512,233.746h-7.928a1.984,1.984,0,0,1-1.982-1.982v-7.929a1.984,1.984,0,0,1,1.982-1.982h7.928a1.984,1.984,0,0,1,1.982,1.982v7.928A1.984,1.984,0,0,1,235.512,233.746Zm-7.928-10.571a.662.662,0,0,0-.661.661v7.929a.662.662,0,0,0,.661.661h7.928a.662.662,0,0,0,.661-.661v-7.929a.662.662,0,0,0-.661-.661Z" transform="translate(-109.415 -144.084)" fill="#3f3d56"/>
    <rect id="Rectangle_19" data-name="Rectangle 19" width="150.641" height="1.321" transform="translate(116.847 88.341)" fill="#3f3d56"/>
    <path id="Path_85" data-name="Path 85" d="M0,0H35.018V10.571H0Z" transform="translate(228.506 124.68)" fill="#2699fb"/>
    <path id="Path_73" data-name="Path 73" d="M434.958,298.746H402.583a1.984,1.984,0,0,1-1.982-1.982v-7.928a1.984,1.984,0,0,1,1.982-1.982h32.375a1.984,1.984,0,0,1,1.982,1.982v7.928A1.984,1.984,0,0,1,434.958,298.746Zm-32.375-10.571a.662.662,0,0,0-.661.661v7.928a.662.662,0,0,0,.661.661h32.375a.662.662,0,0,0,.661-.661v-7.928a.662.662,0,0,0-.661-.661Z" transform="translate(-168.791 -166.138)" fill="#3f3d56"/>
    <rect id="Rectangle_21" data-name="Rectangle 21" width="66.071" height="46.25" transform="translate(465.04 136.573)" fill="#2699fb"/>
    <path id="Path_74" data-name="Path 74" d="M829.672,350.245H766.244A2.646,2.646,0,0,1,763.6,347.6V304a2.646,2.646,0,0,1,2.643-2.643h63.428A2.646,2.646,0,0,1,832.315,304V347.6a2.646,2.646,0,0,1-2.643,2.643ZM766.244,304V347.6h63.43l0-43.607Z" transform="translate(-291.954 -171.057)" fill="#3f3d56"/>
    <path id="Path_75" data-name="Path 75" d="M827.493,290.3h-2.643a21.8,21.8,0,1,0-43.607,0H778.6a24.446,24.446,0,1,1,48.892,0Z" transform="translate(-297.043 -159.012)" fill="#3f3d56"/>
    <path id="Path_76" data-name="Path 76" d="M818.815,326.956a6.607,6.607,0,1,0-10.1,5.6v7.092a3.5,3.5,0,0,0,3.5,3.5h0a3.5,3.5,0,0,0,3.5-3.5v-7.091A6.6,6.6,0,0,0,818.815,326.956Z" transform="translate(-306.204 -177.5)" fill="#3f3d56"/>
    <rect id="Rectangle_22" data-name="Rectangle 22" width="10.571" height="1.321" transform="translate(187.873 371.785)" fill="#3f3d56"/>
    <rect id="Rectangle_23" data-name="Rectangle 23" width="10.571" height="1.321" transform="translate(202.408 371.785)" fill="#3f3d56"/>
    <rect id="Rectangle_24" data-name="Rectangle 24" width="10.571" height="1.321" transform="translate(216.944 371.785)" fill="#3f3d56"/>
    <rect id="Rectangle_25" data-name="Rectangle 25" width="10.571" height="1.321" transform="translate(231.48 371.785)" fill="#3f3d56"/>
    <rect id="Rectangle_26" data-name="Rectangle 26" width="10.571" height="1.321" transform="translate(246.015 371.785)" fill="#3f3d56"/>
    <path id="Path_77" data-name="Path 77" d="M483.116,698.781H173.244a2.646,2.646,0,0,1-2.643-2.643V545.5a2.646,2.646,0,0,1,2.643-2.643H483.116a2.645,2.645,0,0,1,2.643,2.643V696.138a2.646,2.646,0,0,1-2.643,2.643ZM173.244,545.5V696.138H483.118l0-150.641Z" transform="translate(-90.754 -252.997)" fill="#3f3d56"/>
    <circle id="Ellipse_43" data-name="Ellipse 43" cx="3.964" cy="3.964" r="3.964" transform="translate(92.401 307.035)" fill="#3f3d56"/>
    <circle id="Ellipse_44" data-name="Ellipse 44" cx="3.964" cy="3.964" r="3.964" transform="translate(106.275 307.035)" fill="#3f3d56"/>
    <circle id="Ellipse_45" data-name="Ellipse 45" cx="3.964" cy="3.964" r="3.964" transform="translate(120.15 307.035)" fill="#3f3d56"/>
    <path id="Path_78" data-name="Path 78" d="M406.779,667.281h-89.2A1.984,1.984,0,0,1,315.6,665.3V642.835a1.984,1.984,0,0,1,1.982-1.982h89.2a1.984,1.984,0,0,1,1.982,1.982V665.3A1.984,1.984,0,0,1,406.779,667.281Zm-89.2-25.107a.661.661,0,0,0-.661.661V665.3a.661.661,0,0,0,.661.661h89.2a.661.661,0,0,0,.661-.661V642.835a.661.661,0,0,0-.661-.661Z" transform="translate(-139.951 -286.247)" fill="#3f3d56"/>
    <circle id="Ellipse_46" data-name="Ellipse 46" cx="11.893" cy="11.893" r="11.893" transform="translate(277.399 357.91)" fill="#2699fb"/>
    <path id="Path_79" data-name="Path 79" d="M487.154,666.96a12.553,12.553,0,1,1,12.553-12.553A12.553,12.553,0,0,1,487.154,666.96Zm0-23.785a11.232,11.232,0,1,0,11.232,11.232,11.232,11.232,0,0,0-11.232-11.232Z" transform="translate(-193.898 -286.586)" fill="#3f3d56"/>
    <path id="Path_80" data-name="Path 80" d="M440.833,553.2l-6.4-6.4,1.868-1.868,4.175,4.174,11.65-16.555,2.161,1.522Z" transform="translate(-147.401 -180.692)" fill="#3f3d56"/>
    <path id="Path_81" data-name="Path 81" d="M300.361,224.971H40.591V50.947Z" transform="translate(-13.772 -17.286)" opacity="0.1"/>
    <path id="Path_82" data-name="Path 82" d="M432.265,411.854H399.69v-2.347a.465.465,0,0,0-.465-.465H388.057a.465.465,0,0,0-.465.465v2.347h-6.98v-2.347a.465.465,0,0,0-.465-.465H368.977a.465.465,0,0,0-.465.465v2.347h-6.98v-2.347a.465.465,0,0,0-.465-.465H349.9a.465.465,0,0,0-.465.465v2.347h-6.98v-2.347a.465.465,0,0,0-.465-.465H330.82a.465.465,0,0,0-.465.465v2.347h-6.981v-2.347a.465.465,0,0,0-.465-.465H311.74a.465.465,0,0,0-.465.465v2.347h-6.981v-2.347a.465.465,0,0,0-.465-.465H292.661a.465.465,0,0,0-.465.465v2.347h-6.98v-2.347a.465.465,0,0,0-.465-.465H197.265a.465.465,0,0,0-.465.465v2.347h-6.98v-2.347a.465.465,0,0,0-.465-.465H178.186a.465.465,0,0,0-.465.465v2.347h-6.98v-2.347a.465.465,0,0,0-.465-.465H159.106a.465.465,0,0,0-.465.465v2.347h-6.98v-2.347a.465.465,0,0,0-.465-.465H140.027a.465.465,0,0,0-.465.465v2.347h-6.98v-2.347a.465.465,0,0,0-.465-.465H120.948a.465.465,0,0,0-.465.465v2.347H113.5v-2.347a.465.465,0,0,0-.465-.465H101.868a.465.465,0,0,0-.465.465v2.347h-6.98v-2.347a.465.465,0,0,0-.465-.465H82.789a.465.465,0,0,0-.465.465v2.347H60.918A11.168,11.168,0,0,0,49.75,423.022v5.05a11.168,11.168,0,0,0,11.168,11.168H432.265a11.168,11.168,0,0,0,11.169-11.169v-5.05a11.168,11.168,0,0,0-11.169-11.169Z" transform="translate(-49.75 -207.595)" fill="#3f3d56"/>
    <path id="Path_83" data-name="Path 83" d="M384.01,282.5H209.583a1.984,1.984,0,0,1-1.982-1.982V207.835a1.984,1.984,0,0,1,1.982-1.982H384.01a1.984,1.984,0,0,1,1.982,1.982v72.678A1.984,1.984,0,0,1,384.01,282.5ZM209.583,207.174a.662.662,0,0,0-.661.661v72.678a.662.662,0,0,0,.661.661H384.01a.662.662,0,0,0,.661-.661V207.835a.662.662,0,0,0-.661-.661Z" transform="translate(-103.307 -138.655)" fill="#3f3d56"/>
    <path id="Path_84" data-name="Path 84" d="M235.512,263.746h-7.928a1.984,1.984,0,0,1-1.982-1.982v-7.928a1.984,1.984,0,0,1,1.982-1.982h7.928a1.984,1.984,0,0,1,1.982,1.982v7.928a1.984,1.984,0,0,1-1.982,1.982Zm-7.928-10.571a.662.662,0,0,0-.661.661v7.928a.662.662,0,0,0,.661.661h7.928a.662.662,0,0,0,.661-.661v-7.928a.662.662,0,0,0-.661-.661Z" transform="translate(-109.415 -154.262)" fill="#3f3d56"/>
    <rect id="Rectangle_27" data-name="Rectangle 27" width="150.641" height="1.321" transform="translate(116.847 108.162)" fill="#3f3d56"/>
    <rect id="Rectangle_28" data-name="Rectangle 28" width="484.299" height="1.321" transform="translate(174.989 178.197)" fill="#3f3d56"/>
    <circle id="Ellipse_47" data-name="Ellipse 47" cx="9.25" cy="9.25" r="9.25" transform="translate(165.739 168.947)" fill="#3f3d56"/>
    <circle id="Ellipse_48" data-name="Ellipse 48" cx="7.268" cy="7.268" r="7.268" transform="translate(652.02 172.251)" fill="#3f3d56"/>
    <circle id="Ellipse_49" data-name="Ellipse 49" cx="7.268" cy="7.268" r="7.268" transform="translate(687.697 318.267)" fill="#3f3d56"/>
    <circle id="Ellipse_50" data-name="Ellipse 50" cx="7.268" cy="7.268" r="7.268" transform="translate(205.382 318.267)" fill="#3f3d56"/>
  </g>
</svg>
