<svg xmlns="http://www.w3.org/2000/svg" width="795.987" height="626.993" viewBox="0 0 795.987 626.993">
  <g id="Group_13" data-name="Group 13" transform="translate(0 0)">
    <path id="Path_118" data-name="Path 118" d="M439.6,491.333c-6.353-34,3.649-72.681,31.448-93.261a159.362,159.362,0,0,0,33.222,104.247c8.923,11.437,20.039,23.229,19.694,37.731-.215,9.024-5.095,17.43-11.526,23.763s-14.354,10.9-22.181,15.394l-1.218,1.9C466.1,555.22,445.957,525.332,439.6,491.333Z" transform="translate(-248.503 -151.387)" fill="#f0f0f0"/>
    <path id="Path_119" data-name="Path 119" d="M467.016,398.737a136.212,136.212,0,0,0-8.992,83.322,58.658,58.658,0,0,0,6.211,17.3,33.643,33.643,0,0,0,12.709,12.328c4.851,2.8,10.138,5.109,14.224,9.042a20.6,20.6,0,0,1,6.064,15.718c-.2,7.234-2.979,13.966-5.93,20.455-3.276,7.2-6.793,14.637-6.581,22.737.026.981-1.5.964-1.524-.016-.37-14.093,9.819-25.411,12.089-38.934,1.059-6.31.224-12.978-4.213-17.869-3.879-4.277-9.329-6.659-14.266-9.455a35.9,35.9,0,0,1-12.876-11.591,54.229,54.229,0,0,1-6.853-16.994,132.15,132.15,0,0,1-3-41.194,138.629,138.629,0,0,1,11.624-45.629C466.108,397.061,467.413,397.85,467.016,398.737Z" transform="translate(-243.96 -151.533)" fill="#fff"/>
    <path id="Path_120" data-name="Path 120" d="M459.923,460.009A20.436,20.436,0,0,1,438.6,444.334c-.223-.955,1.251-1.346,1.474-.39a18.923,18.923,0,0,0,19.862,14.541C460.918,458.411,460.9,459.936,459.923,460.009Z" transform="translate(-248.269 -138.397)" fill="#fff"/>
    <path id="Path_121" data-name="Path 121" d="M469.736,491.576a39.389,39.389,0,0,0,9.873-26.954c-.022-.982,1.5-.964,1.524.016A40.971,40.971,0,0,1,470.8,492.666c-.653.734-1.716-.359-1.067-1.089Z" transform="translate(-239.398 -132.522)" fill="#fff"/>
    <path id="Path_122" data-name="Path 122" d="M456.507,422.732a11.568,11.568,0,0,0,10.276-3.858c.644-.742,1.706.352,1.067,1.089a12.963,12.963,0,0,1-11.359,4.293.788.788,0,0,1-.754-.77.766.766,0,0,1,.77-.754Z" transform="translate(-243.352 -145.496)" fill="#fff"/>
    <path id="Path_123" data-name="Path 123" d="M573.575,419.93c-.389.475-.777.95-1.163,1.437a152.342,152.342,0,0,0-13.943,20.4c-.325.549-.646,1.111-.954,1.668a160.6,160.6,0,0,0-18.739,56.081,155.977,155.977,0,0,0-1.43,23.654c.172,10.923,1.227,22.754-2.121,32.8a26.758,26.758,0,0,1-1.2,3.085l-53.731,17.119c-.142-.022-.28-.032-.422-.055l-2.114.782c-.035-.408-.062-.831-.1-1.238-.021-.236-.03-.476-.052-.713-.01-.159-.02-.318-.039-.46,0-.053-.007-.106-.006-.146-.018-.143-.02-.277-.035-.407-.16-2.366-.308-4.736-.43-7.114,0-.012,0-.012,0-.028-.922-18.111-.341-36.458,3.007-54.134.1-.532.2-1.076.323-1.615a148.823,148.823,0,0,1,6.582-23.378,131.569,131.569,0,0,1,5.306-12.209,109.407,109.407,0,0,1,19.861-27.852c16.029-16.315,37.1-27.321,59.673-27.668C572.427,419.932,572.993,419.926,573.575,419.93Z" transform="translate(-237.343 -145.122)" fill="#f0f0f0"/>
    <path id="Path_124" data-name="Path 124" d="M573.485,420.826A136.212,136.212,0,0,0,516.14,481.94a58.658,58.658,0,0,0-5.455,17.55,33.642,33.642,0,0,0,2.726,17.5c2.186,5.159,5.019,10.183,5.913,15.783a20.6,20.6,0,0,1-4.621,16.2c-4.512,5.658-10.787,9.358-17.05,12.763-6.954,3.78-14.236,7.6-18.943,14.192-.57.8-1.777-.133-1.207-.93,8.19-11.475,23.139-14.378,33.094-23.808,4.645-4.4,7.992-10.227,7.395-16.8-.522-5.751-3.44-10.934-5.7-16.138a35.9,35.9,0,0,1-3.3-17.007,54.228,54.228,0,0,1,4.76-17.7,132.148,132.148,0,0,1,22.41-34.694,138.631,138.631,0,0,1,36.753-29.434c.857-.473,1.424.943.573,1.413Z" transform="translate(-237.157 -145.298)" fill="#fff"/>
    <path id="Path_125" data-name="Path 125" d="M512.25,467.078a20.436,20.436,0,0,1-7.586-25.352c.4-.9,1.809-.322,1.412.576a18.923,18.923,0,0,0,7.1,23.568c.825.53-.11,1.735-.931,1.208Z" transform="translate(-229.824 -139.004)" fill="#fff"/>
    <path id="Path_126" data-name="Path 126" d="M504.39,496.847A39.388,39.388,0,0,0,528.5,481.269c.573-.8,1.78.134,1.208.93a40.97,40.97,0,0,1-25.123,16.159c-.964.193-1.154-1.32-.2-1.512Z" transform="translate(-229.589 -127.629)" fill="#fff"/>
    <path id="Path_127" data-name="Path 127" d="M532.144,434.528a11.568,11.568,0,0,0,10.528,3.106c.961-.205,1.15,1.308.2,1.512a12.963,12.963,0,0,1-11.654-3.411.788.788,0,0,1-.138-1.069.766.766,0,0,1,1.069-.139Z" transform="translate(-221.803 -140.983)" fill="#fff"/>
    <path id="Path_128" data-name="Path 128" d="M624.363,278.067a15.434,15.434,0,0,1,.351,2.405l63,36.343L703.023,308l16.324,21.37-25.591,18.24a11.732,11.732,0,0,1-14.076-.343l-64.961-51.248a15.394,15.394,0,1,1,9.643-17.952Z" transform="translate(-203.731 -189.184)" fill="#ffb6b6"/>
    <path id="Path_129" data-name="Path 129" d="M667.544,307.76a6.592,6.592,0,0,1,3.291-4.4l29.085-15.847a18.327,18.327,0,1,1,22.158,29.2l-23.31,23.681a6.6,6.6,0,0,1-9.971-.656l-20.069-26.61A6.592,6.592,0,0,1,667.544,307.76Z" transform="translate(-182.691 -184.141)" fill="#3f3d56"/>
    <path id="Path_130" data-name="Path 130" d="M708.291,237.828c4.185-13.337,13.7-25.568,26.861-30.077s32.433,2.359,42.327,12.22c18.1,18.038,22.516,80,10.081,99.585-2.473-.131-11.008-.228-13.511-.322l-3.541-11.8v11.686c-19.539-.6-39.88-.226-60.233.165C708.451,305.42,704.105,251.165,708.291,237.828Z" transform="translate(-171.475 -206.338)" fill="#2f2e41"/>
    <path id="Path_131" data-name="Path 131" d="M418.741,474.885H400.92l-8.477-68.739h26.3Z" transform="translate(112.474 116.401)" fill="#ffb6b6"/>
    <path id="Path_132" data-name="Path 132" d="M543.668,465.777l-17.244,4.494-25.543-64.378,25.451-6.632Z" transform="translate(143.552 114.428)" fill="#ffb6b6"/>
    <path id="Path_133" data-name="Path 133" d="M474.689,133.232l4.039,10.5-.808,10.5L398.892,181.6l3.922-45.947,8.883-10.5Z" transform="translate(114.322 35.869)" fill="#ffb6b6"/>
    <circle id="Ellipse_57" data-name="Ellipse 57" cx="28.226" cy="28.226" r="28.226" transform="translate(535.799 18.17)" fill="#ffb7b7"/>
    <path id="Path_134" data-name="Path 134" d="M717.755,214.985a35.453,35.453,0,0,1,53.9,30.941c-15.386,3.932-31.782,5.577-49.157.947l-3.972-9.721-2.342,9.728q-7.974,5.609-15.392-.02A36.2,36.2,0,0,1,717.755,214.985Z" transform="translate(-173.125 -205.344)" fill="#2f2e41"/>
    <path id="Path_135" data-name="Path 135" d="M723.5,702.081H710.855L708.6,690.143l-5.781,11.939h-33.54a7.539,7.539,0,0,1-4.284-13.743l26.783-18.5v-12.07l28.172,1.681Z" transform="translate(-184.313 -76.957)" fill="#2f2e41"/>
    <path id="Path_136" data-name="Path 136" d="M852.435,689.857l-12.237,3.19L835,682.063l-2.583,13.011-32.455,8.46a7.539,7.539,0,0,1-7.612-12.218L813.6,666.661l-3.044-11.68,27.685-5.479Z" transform="translate(-147.402 -79.327)" fill="#2f2e41"/>
    <path id="Path_137" data-name="Path 137" d="M864.9,694.915,812.661,587.551l-16.4-130.675c11.306-21-9.691-63.724-9.691-63.724V375.213l-81.339,15.345h0a390.443,390.443,0,0,0-23.792,141.768l3.278,173.7h-1.028a6.433,6.433,0,1,0,0,12.866h32.165a6.433,6.433,0,0,0,0-12.866h-.829l23.091-220.982L764.964,594.1,829.847,694.5a6.417,6.417,0,0,0,.515,12.814h32.165a6.426,6.426,0,0,0,2.372-12.4Z" transform="translate(-179.865 -157.938)" fill="#2f2e41"/>
    <path id="Path_138" data-name="Path 138" d="M792.148,432.789h0a5.129,5.129,0,0,0-4.638-3.853c-1.072-12.258-8.156-90.871-8.426-93.177l-.01-.1-2.051-43.819a6.48,6.48,0,0,0-6.05-6.163l-10.834-.708a.573.573,0,0,1-.554-.573,9.111,9.111,0,0,0-9.111-9.111H718.4a8.53,8.53,0,0,0-8.46,7.467.566.566,0,0,1-.576.51h0a15.239,15.239,0,0,0-15.33,12.64c-4.385,25.514-13.174,83.423-8.829,115.617,1.513,11.207.825,28.063.253,37.44a6.9,6.9,0,0,0,1.718,5,5.137,5.137,0,0,0-3.559,6.185h0a5.146,5.146,0,0,0,6.248,3.732l98.558-24.845A5.146,5.146,0,0,0,792.148,432.789Z" transform="translate(-178.089 -186.577)" fill="#3f3d56"/>
    <path id="Path_139" data-name="Path 139" d="M709.706,549.975a12.177,12.177,0,0,0-10.223-11.941L524.745,509.339a12.175,12.175,0,0,0-5.035.224l-40.951,10.589-23.5,6.083L411.9,537.444a12.215,12.215,0,0,0-9.144,11.819v183.1a12.268,12.268,0,0,0,9.663,11.931L590.4,742.281a11.858,11.858,0,0,0,2.543.264,12.184,12.184,0,0,0,3.672-.559l105.744,2.631a12.156,12.156,0,0,0,8.534-11.738Z" transform="translate(-258.536 -119.544)" fill="#fff"/>
    <path id="Path_140" data-name="Path 140" d="M709.706,549.975a12.177,12.177,0,0,0-10.223-11.941L524.745,509.339a12.175,12.175,0,0,0-5.035.224l-40.951,10.589-23.5,6.083L411.9,537.444a12.215,12.215,0,0,0-9.144,11.819v183.1a12.268,12.268,0,0,0,9.663,11.931L590.4,742.281a11.858,11.858,0,0,0,2.543.264,12.184,12.184,0,0,0,3.672-.559l105.744,2.631a12.156,12.156,0,0,0,8.534-11.738Zm-8.26,191.733L595.7,744.224a9.282,9.282,0,0,1-4.659.224L413.05,741.316a9.2,9.2,0,0,1-7.242-8.951v-183.1a9.165,9.165,0,0,1,6-8.6,7.607,7.607,0,0,1,.854-.264l45.874-11.86,27.128-7.018,34.807-9a8.728,8.728,0,0,1,2.289-.3,9.048,9.048,0,0,1,1.485.122l174.739,28.694A9.108,9.108,0,0,1,706.655,550l1.19,182.9a9.123,9.123,0,0,1-6.4,8.809Z" transform="translate(-258.536 -119.544)" fill="#ccc"/>
    <path id="Path_141" data-name="Path 141" d="M704.845,539a1.324,1.324,0,0,1-.386.173l-51.4,13.894-16,4.323-45.508,12.3a1.767,1.767,0,0,1-.4.051,2.489,2.489,0,0,1-.275-.02l-183.5-33.454-.61-.112a1.53,1.53,0,1,1,.549-3.011l3.692.671L591.1,566.643l39.222-10.6,21.94-5.93,50.6-13.681.8-.214a1.533,1.533,0,0,1,1.78.834,1.194,1.194,0,0,1,.092.244A1.53,1.53,0,0,1,704.845,539Z" transform="translate(-257.744 -112.684)" fill="#ccc"/>
    <path id="Path_142" data-name="Path 142" d="M551.671,728.564c-.836,0-1.518-.673-1.526,3.635l-1.526-166.307c-.008-5.989.67-6.678,1.512-6.686h.014c.836,0,1.518.673,1.526,6.658L553.2,732.171c.008-4.3-.669-3.615-1.512-3.607Z" transform="translate(-216.732 -105.206)" fill="#ccc"/>
    <path id="Path_143" data-name="Path 143" d="M642.59,742.387l-16.433.174-6.744-182.1L447.34,526.221a3.955,3.955,0,0,1-.5-.122,6.067,6.067,0,0,1-3.275-2.309l23.5-6.083,6.907,1.373,163.276,32.478a6.069,6.069,0,0,1,4.109,2.97C641.862,555.413,642.58,741.328,642.59,742.387Z" transform="translate(-246.84 -117.099)" fill="#ccc"/>
    <path id="Path_144" data-name="Path 144" d="M752.091,288.676a9.177,9.177,0,0,0-7.7-9L612.693,258.051a9.177,9.177,0,0,0-3.795.169l-30.863,7.98-17.708,4.584-32.68,8.448a9.206,9.206,0,0,0-6.892,8.908V396.076a9.246,9.246,0,0,0,7.283,8.992l134.138,28.54a8.938,8.938,0,0,0,1.917.2,9.182,9.182,0,0,0,2.767-.422l79.695-25.167a9.161,9.161,0,0,0,6.432-8.846Z" transform="translate(-224.718 -191.552)" fill="#fff"/>
    <path id="Path_145" data-name="Path 145" d="M609.409,264.184a1.111,1.111,0,0,0-.285.037l-81.251,21.012a1.149,1.149,0,0,0-.861,1.112V394.279a1.154,1.154,0,0,0,.909,1.124l134.138,28.54a1.158,1.158,0,0,0,.586-.028l79.7-25.167a1.142,1.142,0,0,0,.8-1.1l-.893-110.7a1.147,1.147,0,0,0-.963-1.124L609.6,264.2a1.2,1.2,0,0,0-.186-.016Z" transform="translate(-222.925 -189.759)" fill="#2699fb"/>
    <path id="Path_146" data-name="Path 146" d="M752.091,288.676a9.177,9.177,0,0,0-7.7-9L612.693,258.051a9.177,9.177,0,0,0-3.795.169l-30.863,7.98-17.708,4.584-32.68,8.448a9.206,9.206,0,0,0-6.892,8.908V396.076a9.246,9.246,0,0,0,7.283,8.992l134.138,28.54a8.938,8.938,0,0,0,1.917.2,9.182,9.182,0,0,0,2.767-.422l79.695-25.167a9.161,9.161,0,0,0,6.432-8.846Zm-6.225,117.35-79.695,25.167a7,7,0,0,1-3.511.169l-134.146-28.54a6.936,6.936,0,0,1-5.458-6.746V288.14a6.907,6.907,0,0,1,4.523-6.478,5.729,5.729,0,0,1,.644-.2l34.573-8.938,20.445-5.289,26.233-6.784a6.574,6.574,0,0,1,1.725-.222,6.831,6.831,0,0,1,1.119.092L744.01,281.946a6.864,6.864,0,0,1,5.78,6.746l.9,110.7a6.875,6.875,0,0,1-4.823,6.638Z" transform="translate(-224.718 -191.552)" fill="#3f3d56"/>
    <path id="Path_147" data-name="Path 147" d="M748.426,280.4a1,1,0,0,1-.291.13L709.4,291l-12.059,3.258-34.3,9.268a1.329,1.329,0,0,1-.3.038,1.855,1.855,0,0,1-.207-.015L524.245,278.339l-.46-.084a1.153,1.153,0,0,1,.414-2.269l2.783.506L662.7,301.238l29.56-7.988,16.535-4.469,38.138-10.311.606-.161a1.155,1.155,0,0,1,1.342.629.9.9,0,0,1,.069.184,1.153,1.153,0,0,1-.522,1.28Z" transform="translate(-224.121 -186.382)" fill="#3f3d56"/>
    <path id="Path_148" data-name="Path 148" d="M632.985,423.27a1.15,1.15,0,0,1-1.15-1.139l-1.15-125.338a1.15,1.15,0,0,1,1.139-1.16h.01a1.15,1.15,0,0,1,1.15,1.139l1.15,125.337a1.15,1.15,0,0,1-1.14,1.16Z" transform="translate(-193.212 -180.746)" fill="#3f3d56"/>
    <path id="Path_149" data-name="Path 149" d="M701.182,416.986l-12.058,3.258-5.083-123.667-129.684-25.8a2.964,2.964,0,0,1-.376-.092,4.572,4.572,0,0,1-2.469-1.74l17.708-4.584,5.205,1.035,123.053,24.477a4.574,4.574,0,0,1,3.1,2.238C700.959,292.775,701.174,416.189,701.182,416.986Z" transform="translate(-215.903 -189.709)" fill="#3f3d56"/>
    <path id="Path_150" data-name="Path 150" d="M669.284,333.291A15.433,15.433,0,0,1,671,335.012l72.238-8.437,7.026-16.212,25.852,7.4-9.648,29.908a11.732,11.732,0,0,1-11.5,8.125l-82.709-2.351a15.394,15.394,0,1,1-2.976-20.16Z" transform="translate(-189.407 -176.524)" fill="#ffb6b6"/>
    <path id="Path_151" data-name="Path 151" d="M719.94,330.925a6.592,6.592,0,0,1,.015-5.5l13.88-30.073a18.327,18.327,0,1,1,35.206,10.205l-4.571,32.913a6.6,6.6,0,0,1-8.392,5.425l-31.985-9.373A6.592,6.592,0,0,1,719.94,330.925Z" transform="translate(-167.801 -184.616)" fill="#3f3d56"/>
    <path id="Path_152" data-name="Path 152" d="M1085.118,694.062H292.194a1.532,1.532,0,1,1,0-3.064h792.923a1.532,1.532,0,1,1,0,3.064Z" transform="translate(-290.662 -67.434)" fill="#cacaca"/>
    <circle id="Ellipse_58" data-name="Ellipse 58" cx="46.074" cy="46.074" r="46.074" transform="translate(108.463 371.701)" fill="#2699fb"/>
    <path id="Path_153" data-name="Path 153" d="M409.832,560.372a5.124,5.124,0,0,1-4.1-2.05l-12.57-16.76a5.125,5.125,0,0,1,8.2-6.15l8.224,10.964,21.121-31.682a5.125,5.125,0,1,1,8.529,5.686l-25.14,37.71a5.127,5.127,0,0,1-4.122,2.281C409.927,560.372,409.879,560.372,409.832,560.372Z" transform="translate(-261.58 -118.617)" fill="#fff"/>
    <path id="Path_154" data-name="Path 154" d="M572.572,343.7a1.944,1.944,0,0,1-.426-.048l-39.885-9.006a1.93,1.93,0,0,1,.849-3.766L573,339.891a1.93,1.93,0,0,1-.423,3.813Z" transform="translate(-221.852 -170.656)" fill="#fff"/>
    <path id="Path_155" data-name="Path 155" d="M453.576,623.578a1.942,1.942,0,0,1-.427.04l-40.883-.688a1.93,1.93,0,1,1,.064-3.86l40.883.688a1.93,1.93,0,0,1,.363,3.82Z" transform="translate(-256.355 -88.049)" fill="#e6e6e6"/>
    <path id="Path_156" data-name="Path 156" d="M464.576,640.578a1.941,1.941,0,0,1-.427.04l-40.883-.688a1.93,1.93,0,1,1,.064-3.86l40.883.688a1.93,1.93,0,0,1,.363,3.82Z" transform="translate(-253.202 -83.176)" fill="#e6e6e6"/>
  </g>
</svg>
