<svg xmlns="http://www.w3.org/2000/svg" width="1309" height="396" viewBox="0 0 1309 396">
  <g id="table" transform="translate(-561 -316)">
    <g id="table-2" data-name="table">
      <g id="line">
        <rect id="Rectangle_30" data-name="Rectangle 30" width="163" height="66" rx="31" transform="translate(561 316)" fill="#bce0fd"/>
        <g id="Group_7" data-name="Group 7" transform="translate(725.087 316)">
          <rect id="Rectangle_31" data-name="Rectangle 31" width="163" height="66" rx="31" transform="translate(-0.087)" fill="#bce0fd"/>
          <text id="_8h_-_9h30" data-name="8h - 9h30" transform="translate(41.913 39)" font-size="16" font-family="Poppins-Bold, Poppins" font-weight="700"><tspan x="0" y="0">8h - 9h30</tspan></text>
        </g>
        <g id="Group_6" data-name="Group 6" transform="translate(889.174 316)">
          <rect id="Rectangle_32" data-name="Rectangle 32" width="163" height="66" rx="31" transform="translate(-0.174)" fill="#bce0fd"/>
          <text id="_9h40_-_11h10" data-name="9h40 - 11h10" transform="translate(33.826 39)" font-size="16" font-family="Poppins-Bold, Poppins" font-weight="700"><tspan x="0" y="0">9h40 - 11h10</tspan></text>
        </g>
        <g id="Group_5" data-name="Group 5" transform="translate(1052.16 316)">
          <rect id="Rectangle_33" data-name="Rectangle 33" width="163" height="66" rx="31" transform="translate(-0.16)" fill="#bce0fd"/>
          <text id="_11h20_-_12h30" data-name="11h20 - 12h30" transform="translate(29.841 39)" font-size="16" font-family="Poppins-Bold, Poppins" font-weight="700"><tspan x="0" y="0">11h20 - 12h30</tspan></text>
        </g>
        <g id="Group_4" data-name="Group 4" transform="translate(1215.145 316)">
          <rect id="Rectangle_34" data-name="Rectangle 34" width="163" height="66" rx="31" transform="translate(-0.145)" fill="#bce0fd"/>
          <text id="_12h40_-_13h10_" data-name="12h40 - 13h10 " transform="translate(26.855 39)" font-size="16" font-family="Poppins-Bold, Poppins" font-weight="700"><tspan x="0" y="0">12h40 - 13h10 </tspan></text>
        </g>
        <g id="Group_8" data-name="Group 8" transform="translate(1379.232 316)">
          <rect id="Rectangle_34-2" data-name="Rectangle 34" width="163" height="66" rx="31" transform="translate(-0.232)" fill="#bce0fd"/>
          <text id="_13h20_-_14h10_" data-name="13h20 - 14h10 " transform="translate(26.768 39)" font-size="16" font-family="Poppins-Bold, Poppins" font-weight="700"><tspan x="0" y="0">13h20 - 14h10 </tspan></text>
        </g>
        <g id="Group_9" data-name="Group 9" transform="translate(1543.319 316)">
          <rect id="Rectangle_34-3" data-name="Rectangle 34" width="163" height="66" rx="31" transform="translate(-0.319)" fill="#bce0fd"/>
          <text id="_14h20_-_15h10_" data-name="14h20 - 15h10 " transform="translate(26.681 39)" font-size="16" font-family="Poppins-Bold, Poppins" font-weight="700"><tspan x="0" y="0">14h20 - 15h10 </tspan></text>
        </g>
        <g id="Group_10" data-name="Group 10" transform="translate(1707.406 316)">
          <rect id="Rectangle_34-4" data-name="Rectangle 34" width="163" height="66" rx="31" transform="translate(-0.406)" fill="#bce0fd"/>
          <text id="_14h20_-_15h10_2" data-name="14h20 - 15h10 " transform="translate(26.594 39)" font-size="16" font-family="Poppins-Bold, Poppins" font-weight="700"><tspan x="0" y="0">14h20 - 15h10 </tspan></text>
        </g>
      </g>
      <g id="line-2" data-name="line" transform="translate(0 66)">
        <g id="Group_11" data-name="Group 11">
          <rect id="Rectangle_30-2" data-name="Rectangle 30" width="163" height="66" rx="31" transform="translate(561 316)" fill="#bce0fd"/>
          <text id="Sunday" transform="translate(612 355)" font-size="16" font-family="Poppins-Bold, Poppins" font-weight="700"><tspan x="0" y="0">Sunday</tspan></text>
        </g>
        <g id="Group_7-2" data-name="Group 7" transform="translate(725.087 316)">
          <rect id="Rectangle_31-2" data-name="Rectangle 31" width="163" height="66" rx="31" transform="translate(-0.087)" opacity="0.05"/>
          <text id="TP_127_RP_" data-name="TP 127  RP
" transform="translate(44.913 40)" font-size="16" font-family="Poppins-Medium, Poppins" font-weight="500"><tspan x="0" y="0" xml:space="preserve">TP 127  RP</tspan><tspan x="0" y="25"></tspan></text>
        </g>
        <g id="Group_6-2" data-name="Group 6" transform="translate(889.174 316)">
          <path id="Path_87" data-name="Path 87" d="M31,0H132a31,31,0,0,1,31,31v4a31,31,0,0,1-31,31H31A31,31,0,0,1,0,35V31A31,31,0,0,1,31,0Z" transform="translate(-0.174)" opacity="0.05"/>
          <text id="TP_127_ABD" data-name="TP 127 ABD" transform="translate(39.826 39)" font-size="16" font-family="Poppins-Medium, Poppins" font-weight="500"><tspan x="0" y="0">TP 127 ABD</tspan></text>
        </g>
        <g id="Group_5-2" data-name="Group 5" transform="translate(1052.16 316)">
          <rect id="Rectangle_33-2" data-name="Rectangle 33" width="163" height="66" rx="31" transform="translate(-0.16)" opacity="0.05"/>
          <text id="TP_122_TAI" data-name="TP 122 TAI" transform="translate(43.841 39)" font-size="16" font-family="Poppins-Medium, Poppins" font-weight="500"><tspan x="0" y="0">TP 122 TAI</tspan></text>
        </g>
        <g id="Group_4-2" data-name="Group 4" transform="translate(1215.145 316)">
          <rect id="Rectangle_34-5" data-name="Rectangle 34" width="163" height="66" rx="31" transform="translate(-0.145)" opacity="0.05"/>
          <text id="TP_122_SYST" data-name="TP 122 SYST" transform="translate(36.855 39)" font-size="16" font-family="Poppins-Medium, Poppins" font-weight="500"><tspan x="0" y="0">TP 122 SYST</tspan></text>
        </g>
        <g id="Group_8-2" data-name="Group 8" transform="translate(1379.232 316)">
          <rect id="Rectangle_34-6" data-name="Rectangle 34" width="163" height="66" rx="31" transform="translate(-0.232)" opacity="0.05"/>
        </g>
        <g id="Group_9-2" data-name="Group 9" transform="translate(1543.319 316)">
          <path id="Path_88" data-name="Path 88" d="M31,0H132a31,31,0,0,1,31,31v4a31,31,0,0,1-31,31H31A31,31,0,0,1,0,35V31A31,31,0,0,1,31,0Z" transform="translate(-0.319)" opacity="0.05"/>
        </g>
        <g id="Group_10-2" data-name="Group 10" transform="translate(1707.406 316)">
          <rect id="Rectangle_34-7" data-name="Rectangle 34" width="163" height="66" rx="31" transform="translate(-0.406)" opacity="0.05"/>
        </g>
      </g>
      <g id="line-3" data-name="line" transform="translate(0 132)">
        <g id="Group_11-2" data-name="Group 11">
          <rect id="Rectangle_30-3" data-name="Rectangle 30" width="163" height="66" rx="31" transform="translate(561 316)" fill="#bce0fd"/>
          <text id="Monday" transform="translate(612 355)" font-size="16" font-family="Poppins-Bold, Poppins" font-weight="700"><tspan x="0" y="0">Monday</tspan></text>
        </g>
        <g id="Group_7-3" data-name="Group 7" transform="translate(725.087 316)">
          <rect id="Rectangle_31-3" data-name="Rectangle 31" width="163" height="66" rx="31" transform="translate(-0.087)" opacity="0.05"/>
          <text id="RP_165T_" data-name="RP 165T " transform="translate(49.913 39)" font-size="16" font-family="Poppins-Medium, Poppins" font-weight="500"><tspan x="0" y="0">RP 165T </tspan></text>
        </g>
        <g id="Group_6-3" data-name="Group 6" transform="translate(889.174 316)">
          <path id="Path_87-2" data-name="Path 87" d="M31,0H132a31,31,0,0,1,31,31v4a31,31,0,0,1-31,31H31A31,31,0,0,1,0,35V31A31,31,0,0,1,31,0Z" transform="translate(-0.174)" opacity="0.05"/>
          <text id="ABD_165T" data-name="ABD 165T" transform="translate(45.826 39)" font-size="16" font-family="Poppins-Medium, Poppins" font-weight="500"><tspan x="0" y="0">ABD 165T</tspan></text>
        </g>
        <g id="Group_5-3" data-name="Group 5" transform="translate(1052.16 316)">
          <rect id="Rectangle_33-3" data-name="Rectangle 33" width="163" height="66" rx="31" transform="translate(-0.16)" opacity="0.05"/>
          <text id="MULTIMEDIA_165T" data-name="MULTIMEDIA 165T" transform="translate(17.841 39)" font-size="15" font-family="Poppins-Medium, Poppins" font-weight="500"><tspan x="0" y="0">MULTIMEDIA 165T</tspan></text>
        </g>
        <g id="Group_4-3" data-name="Group 4" transform="translate(1215.145 316)">
          <rect id="Rectangle_34-8" data-name="Rectangle 34" width="163" height="66" rx="31" transform="translate(-0.145)" opacity="0.05"/>
        </g>
        <g id="Group_8-3" data-name="Group 8" transform="translate(1379.232 316)">
          <rect id="Rectangle_34-9" data-name="Rectangle 34" width="163" height="66" rx="31" transform="translate(-0.232)" opacity="0.05"/>
        </g>
        <g id="Group_9-3" data-name="Group 9" transform="translate(1543.319 316)">
          <path id="Path_88-2" data-name="Path 88" d="M31,0H132a31,31,0,0,1,31,31v4a31,31,0,0,1-31,31H31A31,31,0,0,1,0,35V31A31,31,0,0,1,31,0Z" transform="translate(-0.319)" opacity="0.05"/>
        </g>
        <g id="Group_10-3" data-name="Group 10" transform="translate(1707.406 316)">
          <rect id="Rectangle_34-10" data-name="Rectangle 34" width="163" height="66" rx="31" transform="translate(-0.406)" opacity="0.05"/>
        </g>
      </g>
    </g>
    <g id="line-4" data-name="line" transform="translate(0 198)">
      <g id="Group_11-3" data-name="Group 11">
        <rect id="Rectangle_30-4" data-name="Rectangle 30" width="163" height="66" rx="31" transform="translate(561 316)" fill="#bce0fd"/>
        <text id="Tuesday" transform="translate(607 355)" font-size="16" font-family="Poppins-Bold, Poppins" font-weight="700"><tspan x="0" y="0">Tuesday</tspan></text>
      </g>
      <g id="Group_7-4" data-name="Group 7" transform="translate(725.087 316)">
        <rect id="Rectangle_31-4" data-name="Rectangle 31" width="163" height="66" rx="31" transform="translate(-0.087)" opacity="0.05"/>
      </g>
      <g id="Group_6-4" data-name="Group 6" transform="translate(889.174 316)">
        <path id="Path_87-3" data-name="Path 87" d="M31,0H132a31,31,0,0,1,31,31v4a31,31,0,0,1-31,31H31A31,31,0,0,1,0,35V31A31,31,0,0,1,31,0Z" transform="translate(-0.174)" opacity="0.05"/>
      </g>
      <g id="Group_5-4" data-name="Group 5" transform="translate(1052.16 316)">
        <rect id="Rectangle_33-4" data-name="Rectangle 33" width="163" height="66" rx="31" transform="translate(-0.16)" opacity="0.05"/>
        <text id="TP_122_COMP" data-name="TP 122 COMP" transform="translate(29.841 39)" font-size="16" font-family="Poppins-Medium, Poppins" font-weight="500"><tspan x="0" y="0">TP 122 COMP</tspan></text>
      </g>
      <g id="Group_4-4" data-name="Group 4" transform="translate(1215.145 316)">
        <rect id="Rectangle_34-11" data-name="Rectangle 34" width="163" height="66" rx="31" transform="translate(-0.145)" opacity="0.05"/>
        <text id="TP_122_MULT" data-name="TP 122 MULT" transform="translate(26.855 39)" font-size="16" font-family="Poppins-Medium, Poppins" font-weight="500"><tspan x="0" y="0">TP 122 MULT</tspan></text>
      </g>
      <g id="Group_8-4" data-name="Group 8" transform="translate(1379.232 316)">
        <rect id="Rectangle_34-12" data-name="Rectangle 34" width="163" height="66" rx="31" transform="translate(-0.232)" opacity="0.05"/>
      </g>
      <g id="Group_9-4" data-name="Group 9" transform="translate(1543.319 316)">
        <path id="Path_88-3" data-name="Path 88" d="M31,0H132a31,31,0,0,1,31,31v4a31,31,0,0,1-31,31H31A31,31,0,0,1,0,35V31A31,31,0,0,1,31,0Z" transform="translate(-0.319)" opacity="0.05"/>
      </g>
      <g id="Group_10-4" data-name="Group 10" transform="translate(1707.406 316)">
        <rect id="Rectangle_34-13" data-name="Rectangle 34" width="163" height="66" rx="31" transform="translate(-0.406)" opacity="0.05"/>
      </g>
    </g>
    <g id="line-5" data-name="line" transform="translate(0 264)">
      <g id="Group_11-4" data-name="Group 11">
        <rect id="Rectangle_30-5" data-name="Rectangle 30" width="163" height="66" rx="31" transform="translate(561 316)" fill="#bce0fd"/>
        <text id="Wednesday" transform="translate(596 355)" font-size="16" font-family="Poppins-Bold, Poppins" font-weight="700"><tspan x="0" y="0">Wednesday</tspan></text>
      </g>
      <g id="Group_7-5" data-name="Group 7" transform="translate(725.087 316)">
        <rect id="Rectangle_31-5" data-name="Rectangle 31" width="163" height="66" rx="31" transform="translate(-0.087)" opacity="0.05"/>
      </g>
      <g id="Group_6-5" data-name="Group 6" transform="translate(889.174 316)">
        <path id="Path_87-4" data-name="Path 87" d="M31,0H132a31,31,0,0,1,31,31v4a31,31,0,0,1-31,31H31A31,31,0,0,1,0,35V31A31,31,0,0,1,31,0Z" transform="translate(-0.174)" opacity="0.05"/>
      </g>
      <g id="Group_5-5" data-name="Group 5" transform="translate(1052.16 316)">
        <rect id="Rectangle_33-5" data-name="Rectangle 33" width="163" height="66" rx="31" transform="translate(-0.16)" opacity="0.05"/>
      </g>
      <g id="Group_4-5" data-name="Group 4" transform="translate(1215.145 316)">
        <rect id="Rectangle_34-14" data-name="Rectangle 34" width="163" height="66" rx="31" transform="translate(-0.145)" opacity="0.05"/>
      </g>
      <g id="Group_8-5" data-name="Group 8" transform="translate(1379.232 316)">
        <rect id="Rectangle_34-15" data-name="Rectangle 34" width="163" height="66" rx="31" transform="translate(-0.232)" opacity="0.05"/>
        <text id="SYST_165T" data-name="SYST 165T" transform="translate(42.768 39)" font-size="16" font-family="Poppins-Medium, Poppins" font-weight="500"><tspan x="0" y="0">SYST 165T</tspan></text>
      </g>
      <g id="Group_9-5" data-name="Group 9" transform="translate(1543.319 316)">
        <path id="Path_88-4" data-name="Path 88" d="M31,0H132a31,31,0,0,1,31,31v4a31,31,0,0,1-31,31H31A31,31,0,0,1,0,35V31A31,31,0,0,1,31,0Z" transform="translate(-0.319)" opacity="0.05"/>
        <text id="TD_SYST_165T" data-name="TD SYST 165T" transform="translate(26.681 39)" font-size="16" font-family="Poppins-Medium, Poppins" font-weight="500"><tspan x="0" y="0">TD SYST 165T</tspan></text>
      </g>
      <g id="Group_10-5" data-name="Group 10" transform="translate(1707.406 316)">
        <rect id="Rectangle_34-16" data-name="Rectangle 34" width="163" height="66" rx="31" transform="translate(-0.406)" opacity="0.05"/>
        <text id="TAI_165T" data-name="TAI 165T" transform="translate(49.594 39)" font-size="16" font-family="Poppins-Medium, Poppins" font-weight="500"><tspan x="0" y="0">TAI 165T</tspan></text>
      </g>
    </g>
    <g id="line-6" data-name="line" transform="translate(0 330)">
      <g id="Group_11-5" data-name="Group 11">
        <rect id="Rectangle_30-6" data-name="Rectangle 30" width="163" height="66" rx="31" transform="translate(561 316)" fill="#bce0fd"/>
        <text id="Thursday" transform="translate(603 355)" font-size="16" font-family="Poppins-Bold, Poppins" font-weight="700"><tspan x="0" y="0">Thursday</tspan></text>
      </g>
      <g id="Group_7-6" data-name="Group 7" transform="translate(725.087 316)">
        <rect id="Rectangle_31-6" data-name="Rectangle 31" width="163" height="66" rx="31" transform="translate(-0.087)" opacity="0.05"/>
        <text id="COMP_165T" data-name="COMP 165T" transform="translate(37.913 39)" font-size="16" font-family="Poppins-Medium, Poppins" font-weight="500"><tspan x="0" y="0">COMP 165T</tspan></text>
      </g>
      <g id="Group_6-6" data-name="Group 6" transform="translate(889.174 316)">
        <path id="Path_87-5" data-name="Path 87" d="M31,0H132a31,31,0,0,1,31,31v4a31,31,0,0,1-31,31H31A31,31,0,0,1,0,35V31A31,31,0,0,1,31,0Z" transform="translate(-0.174)" opacity="0.05"/>
        <text id="TD_COMP_165T" data-name="TD COMP 165T" transform="translate(25.826 39)" font-size="16" font-family="Poppins-Medium, Poppins" font-weight="500"><tspan x="0" y="0">TD COMP 165T</tspan></text>
      </g>
      <g id="Group_5-6" data-name="Group 5" transform="translate(1052.16 316)">
        <rect id="Rectangle_33-6" data-name="Rectangle 33" width="163" height="66" rx="31" transform="translate(-0.16)" opacity="0.05"/>
      </g>
      <g id="Group_4-6" data-name="Group 4" transform="translate(1215.145 316)">
        <rect id="Rectangle_34-17" data-name="Rectangle 34" width="163" height="66" rx="31" transform="translate(-0.145)" opacity="0.05"/>
      </g>
      <g id="Group_8-6" data-name="Group 8" transform="translate(1379.232 316)">
        <rect id="Rectangle_34-18" data-name="Rectangle 34" width="163" height="66" rx="31" transform="translate(-0.232)" opacity="0.05"/>
      </g>
      <g id="Group_9-6" data-name="Group 9" transform="translate(1543.319 316)">
        <path id="Path_88-5" data-name="Path 88" d="M31,0H132a31,31,0,0,1,31,31v4a31,31,0,0,1-31,31H31A31,31,0,0,1,0,35V31A31,31,0,0,1,31,0Z" transform="translate(-0.319)" opacity="0.05"/>
      </g>
      <g id="Group_10-6" data-name="Group 10" transform="translate(1707.406 316)">
        <rect id="Rectangle_34-19" data-name="Rectangle 34" width="163" height="66" rx="31" transform="translate(-0.406)" opacity="0.05"/>
      </g>
    </g>
  </g>
</svg>
