<svg xmlns="http://www.w3.org/2000/svg" width="428.417" height="296.378" viewBox="0 0 428.417 296.378">
  <g id="Group_12" data-name="Group 12" transform="translate(0 0)">
    <path id="Path_89" data-name="Path 89" d="M632.371,329.976a12.2,12.2,0,0,0-8.665-3.588V319.25a12.427,12.427,0,0,0-12.436-12.436v-5.378h2.96a4.774,4.774,0,0,0,0-9.548h-2.96v-3.732h-1.464v3.732h-3.533a4.774,4.774,0,0,0,0,9.548h3.533v5.378h-9.118a6.6,6.6,0,0,0-6.6,6.6v12.968h-2.108A24.774,24.774,0,0,0,567.2,351.165V368.5a26.289,26.289,0,0,0-18.335,19.34H538V376.862h-6.584v-4.615h4.042a4.774,4.774,0,0,0,0-9.548h-4.042v-3.029h-1.463V362.7h-2.452a4.774,4.774,0,1,0,0,9.548h2.452v4.634a6.6,6.6,0,0,0-6.218,6.586v4.407a24.779,24.779,0,0,0-23.41,24.74V514.029H635.959V338.64a12.2,12.2,0,0,0-3.588-8.664Z" transform="translate(-330.207 -217.947)" fill="#f2f2f2"/>
    <path id="Path_90" data-name="Path 90" d="M354.591,326.389v-7.133a12.436,12.436,0,0,0-12.436-12.436h0v-6.971h2.9a4.774,4.774,0,1,0,0-9.548h-2.9v-2.136h-1.463V290.3h-3.6a4.774,4.774,0,1,0,0,9.548h3.6v6.971h-9.123a6.606,6.606,0,0,0-6.606,6.606v12.963h-2.105a24.779,24.779,0,0,0-24.779,24.78v16.055a26.277,26.277,0,0,0-15.643,20.616H268.887V376.866H262.3V370.66h2.389a4.774,4.774,0,1,0,0-9.548H262.3v-1.438H260.84v1.438h-4.1a4.774,4.774,0,0,0,0,9.548h4.1v6.225a6.6,6.6,0,0,0-6.218,6.586v4.407a24.779,24.779,0,0,0-23.41,24.74V514.033H366.845V338.642a12.253,12.253,0,0,0-12.253-12.253Z" transform="translate(-217.238 -217.951)" fill="#f2f2f2"/>
    <rect id="Rectangle_35" data-name="Rectangle 35" width="9.144" height="7.316" transform="translate(56.404 213.782) rotate(180)" fill="#fff"/>
    <rect id="Rectangle_36" data-name="Rectangle 36" width="9.144" height="7.316" transform="translate(41.407 213.782) rotate(180)" fill="#fff"/>
    <rect id="Rectangle_37" data-name="Rectangle 37" width="9.144" height="7.316" transform="translate(56.404 232.437) rotate(180)" fill="#fff"/>
    <rect id="Rectangle_38" data-name="Rectangle 38" width="9.144" height="7.316" transform="translate(41.407 232.437) rotate(180)" fill="#fff"/>
    <rect id="Rectangle_39" data-name="Rectangle 39" width="9.144" height="7.316" transform="translate(56.404 251.092) rotate(180)" fill="#fff"/>
    <rect id="Rectangle_40" data-name="Rectangle 40" width="9.144" height="7.316" transform="translate(41.407 251.092) rotate(180)" fill="#fff"/>
    <rect id="Rectangle_41" data-name="Rectangle 41" width="9.144" height="7.316" transform="translate(41.407 269.746) rotate(180)" fill="#fff"/>
    <rect id="Rectangle_42" data-name="Rectangle 42" width="9.144" height="7.316" transform="translate(41.407 288.401) rotate(180)" fill="#fff"/>
    <rect id="Rectangle_43" data-name="Rectangle 43" width="29.628" height="2.195" transform="translate(143.016 193.116) rotate(180)" fill="#fff"/>
    <rect id="Rectangle_44" data-name="Rectangle 44" width="29.628" height="2.195" transform="translate(143.016 206.65) rotate(180)" fill="#fff"/>
    <rect id="Rectangle_45" data-name="Rectangle 45" width="29.628" height="2.195" transform="translate(143.016 220.183) rotate(180)" fill="#fff"/>
    <rect id="Rectangle_46" data-name="Rectangle 46" width="9.144" height="7.316" transform="translate(141.524 100.208) rotate(180)" fill="#fff"/>
    <rect id="Rectangle_47" data-name="Rectangle 47" width="9.144" height="7.316" transform="translate(207.641 232.437) rotate(180)" fill="#fff"/>
    <rect id="Rectangle_48" data-name="Rectangle 48" width="9.144" height="7.316" transform="translate(190.812 232.437) rotate(180)" fill="#fff"/>
    <rect id="Rectangle_49" data-name="Rectangle 49" width="9.144" height="7.316" transform="translate(207.641 251.092) rotate(180)" fill="#fff"/>
    <rect id="Rectangle_50" data-name="Rectangle 50" width="9.144" height="7.316" transform="translate(190.812 251.092) rotate(180)" fill="#fff"/>
    <rect id="Rectangle_51" data-name="Rectangle 51" width="9.144" height="7.316" transform="translate(207.641 269.746) rotate(180)" fill="#fff"/>
    <rect id="Rectangle_52" data-name="Rectangle 52" width="9.144" height="7.316" transform="translate(190.812 269.746) rotate(180)" fill="#fff"/>
    <rect id="Rectangle_53" data-name="Rectangle 53" width="9.144" height="7.316" transform="translate(207.641 288.401) rotate(180)" fill="#fff"/>
    <rect id="Rectangle_54" data-name="Rectangle 54" width="9.144" height="7.316" transform="translate(190.812 288.401) rotate(180)" fill="#fff"/>
    <rect id="Rectangle_55" data-name="Rectangle 55" width="9.144" height="7.316" transform="translate(286.987 100.208) rotate(180)" fill="#fff"/>
    <rect id="Rectangle_56" data-name="Rectangle 56" width="22.524" height="4.774" transform="translate(289.232 124.067)" fill="#fff"/>
    <rect id="Rectangle_57" data-name="Rectangle 57" width="22.524" height="4.774" transform="translate(289.232 138.388)" fill="#fff"/>
    <rect id="Rectangle_58" data-name="Rectangle 58" width="22.524" height="4.774" transform="translate(289.232 152.709)" fill="#fff"/>
    <rect id="Rectangle_59" data-name="Rectangle 59" width="22.524" height="4.774" transform="translate(289.232 167.031)" fill="#fff"/>
    <rect id="Rectangle_60" data-name="Rectangle 60" width="22.524" height="4.774" transform="translate(289.232 181.353)" fill="#fff"/>
    <rect id="Rectangle_61" data-name="Rectangle 61" width="22.524" height="4.774" transform="translate(289.232 195.674)" fill="#fff"/>
    <path id="Path_91" data-name="Path 91" d="M309.242,440.617l5.175,4.331L333.956,426.6l-7.638-6.391Z" transform="translate(-141.3 -217.807)" fill="#ffb6b6"/>
    <path id="Path_92" data-name="Path 92" d="M507.45,478.642l-10.959-7.565,28.856-45.75c-20.914-12.156-35.3-26.986-47.033-43.275-3.988-5.5-6.419-11.9-.856-16.019q.39-.289.8-.548c6.345-3.953,4.285,1.972,12.982-.938l7.858,8.382,16.978,16.52,28.959,18.486a12.563,12.563,0,0,1,3.609,17.465q-.3.47-.646.912Z" transform="translate(-323.659 -257.297)" fill="#2f2e41"/>
    <path id="Path_93" data-name="Path 93" d="M499.854,597.644l9.074,6.717-3.1,3.7,3.467,12.551a3.016,3.016,0,0,1-4.843,3.116l-10.289-8.61,1.292-5.147-3.758,3.083-3.879-3.247Z" transform="translate(-332.859 -378.363)" fill="#2f2e41"/>
    <rect id="Rectangle_62" data-name="Rectangle 62" width="59.439" height="4.817" transform="translate(92.342 193.582) rotate(-19.677)" fill="#3f3d56"/>
    <path id="Path_94" data-name="Path 94" d="M496.107,640.365l-14.583-12.591a5.058,5.058,0,0,1,6.611-7.656l14.583,12.592a5.058,5.058,0,1,1-6.611,7.656Z" transform="translate(-329.03 -389.374)" fill="#3f3d56"/>
    <path id="Path_95" data-name="Path 95" d="M620.182,331.76a6.668,6.668,0,0,1-8.762-5.27l-52.095-13.415,8.5-8.914,49.617,14.569a6.7,6.7,0,0,1,2.744,13.03Z" transform="translate(-362.566 -226.242)" fill="#ffb6b6"/>
    <path id="Path_96" data-name="Path 96" d="M512.415,232.152s-8.471.981-8.318,10.743,20.917,32,24.156,35.682,35.569,5.566,35.569,5.566l10.1-8.88-29.945-10.089Z" transform="translate(-337.471 -188.918)" fill="#2699fb"/>
    <path id="Path_97" data-name="Path 97" d="M480.531,327.27l-1.911,8.963s-3.478,7.46-2.8,9.453,30.77,12.757,30.77,12.757,2.579-13.44,6.883-22.506Z" transform="translate(-326.549 -238.22)" fill="#ffb6b6"/>
    <path id="Path_98" data-name="Path 98" d="M659.485,607.958,642.1,616.263a5.058,5.058,0,1,1-4.361-9.127l17.385-8.306a5.058,5.058,0,0,1,4.36,9.127Z" transform="translate(-399.685 -378.721)" fill="#3f3d56"/>
    <path id="Path_99" data-name="Path 99" d="M763.81,637.8a54.9,54.9,0,1,1,54.9-54.9,54.9,54.9,0,0,1-54.9,54.9Zm0-104.718A49.817,49.817,0,1,0,813.628,582.9a49.817,49.817,0,0,0-49.817-49.817Z" transform="translate(-419.195 -342.264)" fill="#3f3d56"/>
    <circle id="Ellipse_51" data-name="Ellipse 51" cx="7.707" cy="7.707" r="7.707" transform="translate(330.171 236.774)" fill="#3f3d56"/>
    <path id="Path_100" data-name="Path 100" d="M298.471,645.554a52.021,52.021,0,1,1,52.021-52.021A52.021,52.021,0,0,1,298.471,645.554Zm0-99.224a47.2,47.2,0,1,0,47.2,47.2A47.2,47.2,0,0,0,298.471,546.33Z" transform="translate(-225.137 -349.268)" fill="#3f3d56"/>
    <circle id="Ellipse_52" data-name="Ellipse 52" cx="7.707" cy="7.707" r="7.707" transform="translate(73.781 236.558)" fill="#3f3d56"/>
    <circle id="Ellipse_53" data-name="Ellipse 53" cx="8.937" cy="8.937" r="8.937" transform="translate(190.051 234.365)" fill="#3f3d56"/>
    <path id="Path_101" data-name="Path 101" d="M152.575,394.375l-3.514-3.294,62.73-66.92,111.946-33.5L379.3,388.164l-4.185,2.385L321.449,296.37,214.418,328.4Z" transform="translate(-55.777 -150.656)" fill="#3f3d56"/>
    <rect id="Rectangle_63" data-name="Rectangle 63" width="47.335" height="4.817" transform="translate(139.661 240.681)" fill="#3f3d56"/>
    <rect id="Rectangle_64" data-name="Rectangle 64" width="4.817" height="25.183" transform="translate(149.549 150.442)" fill="#3f3d56"/>
    <rect id="Rectangle_65" data-name="Rectangle 65" width="4.817" height="51.133" transform="translate(255.953 94.938) rotate(-17.897)" fill="#3f3d56"/>
    <rect id="Rectangle_66" data-name="Rectangle 66" width="4.817" height="78.15" transform="matrix(0.863, -0.505, 0.505, 0.863, 151.596, 174.892)" fill="#3f3d56"/>
    <rect id="Rectangle_67" data-name="Rectangle 67" width="102.604" height="4.817" transform="matrix(0.826, -0.563, 0.563, 0.826, 211.271, 240.085)" fill="#3f3d56"/>
    <path id="Path_102" data-name="Path 102" d="M477.234,450.074H457.968a5.058,5.058,0,1,1,0-10.115h19.267a5.058,5.058,0,1,1,0,10.115Z" transform="translate(-316.552 -296.63)" fill="#2699fb"/>
    <path id="Path_103" data-name="Path 103" d="M672.234,337.074H652.968a5.058,5.058,0,0,1,0-10.115h19.267a5.058,5.058,0,0,1,0,10.115Z" transform="translate(-405.494 -238.059)" fill="#2699fb"/>
    <path id="Path_104" data-name="Path 104" d="M934.332,675.373l.551-12.388a40.01,40.01,0,0,1,18.662-4.724c-8.963,7.328-7.843,21.454-13.92,31.308a24.066,24.066,0,0,1-17.648,11.121l-7.5,4.592a40.328,40.328,0,0,1,8.5-32.679,38.957,38.957,0,0,1,7.159-6.652C931.933,670.689,934.332,675.373,934.332,675.373Z" transform="translate(-525.419 -409.782)" fill="#f2f2f2"/>
    <path id="Path_105" data-name="Path 105" d="M630.618,755.9a.542.542,0,0,1-.187.406.681.681,0,0,1-.454.167H202.842a.577.577,0,1,1,0-1.146H629.976a.681.681,0,0,1,.454.167.542.542,0,0,1,.187.406Z" transform="translate(-202.201 -460.092)" fill="#ccc"/>
    <circle id="Ellipse_54" data-name="Ellipse 54" cx="14.242" cy="14.242" r="14.242" transform="translate(168.114 10.37) rotate(-9.649)" fill="#ffb6b6"/>
    <circle id="Ellipse_55" data-name="Ellipse 55" cx="12.861" cy="12.861" r="12.861" transform="translate(353.031 63.149)" fill="#fd6584"/>
    <path id="Path_106" data-name="Path 106" d="M892.8,282.581a6.381,6.381,0,0,0-5.385-4.475c-.028,0-.054,0-.082,0a.8.8,0,0,0-.11-.025c-5.882-.76-12.671,2.053-15.122,7.629a6.23,6.23,0,0,0-5.218-2.543,6.355,6.355,0,0,0-5.684,4.581.745.745,0,0,0,.332.816,3.258,3.258,0,0,0,1.344.682q1.6.339,3.216.622,3.149.551,6.33.891a94.129,94.129,0,0,0,12.966.49,9.933,9.933,0,0,0,4.152-.729,6.178,6.178,0,0,0,2.382-2.079,7.009,7.009,0,0,0,.879-5.86Z" transform="translate(-498.118 -212.66)" fill="#f0f0f0"/>
    <path id="Path_107" data-name="Path 107" d="M837.3,318.182a6.381,6.381,0,0,0-5.385-4.475c-.028,0-.055,0-.082,0a.8.8,0,0,0-.11-.025c-5.882-.76-12.671,2.053-15.122,7.629a6.23,6.23,0,0,0-5.218-2.543,6.355,6.355,0,0,0-5.684,4.581.746.746,0,0,0,.332.816,3.259,3.259,0,0,0,1.344.682q1.6.339,3.216.622,3.148.551,6.33.891a94.14,94.14,0,0,0,12.966.49,9.934,9.934,0,0,0,4.152-.729,6.179,6.179,0,0,0,2.382-2.079A7.009,7.009,0,0,0,837.3,318.182Z" transform="translate(-477.183 -231.113)" fill="#f0f0f0"/>
    <path id="Path_108" data-name="Path 108" d="M710.761,433.362l-16.085-33.953.218-.1a9.392,9.392,0,0,1,12.509,4.467l8.042,16.977a9.392,9.392,0,0,1-4.467,12.509Z" transform="translate(-427.479 -275.089)" fill="#3f3d56"/>
    <path id="Path_109" data-name="Path 109" d="M616.238,464.433a9.407,9.407,0,0,1-9-6.739l-.068-.231,36.035-10.632.068.231a9.392,9.392,0,0,1-6.351,11.667l-18.017,5.316A9.434,9.434,0,0,1,616.238,464.433Z" transform="translate(-386.397 -300.192)" fill="#3f3d56"/>
    <path id="Path_110" data-name="Path 110" d="M426.786,432.061l6.557-1.617-3.031-26.635-9.678,2.388Z" transform="translate(-193.035 -209.306)" fill="#ffb6b6"/>
    <path id="Path_111" data-name="Path 111" d="M629.16,583.858l10.233-4.768,1.775,4.49,12.684,2.943a3.016,3.016,0,0,1,.427,5.743L641.8,597.2l-3.906-3.591.916,4.773-4.7,1.859Z" transform="translate(-397.118 -368.746)" fill="#2f2e41"/>
    <path id="Path_112" data-name="Path 112" d="M541.352,457.935l-13.981,8.384L512.46,413.658c-24.19-.206-46.556-2.915-64.818-11.256a12.575,12.575,0,0,1-6.147-16.548q.2-.444.425-.873c3.555-6.576,10.446-10.438,16.561-17.272l30.334,11.2-2.174,8.168,34.313,1.722a12.564,12.564,0,0,1,11.783,13.387q-.031.558-.11,1.112Z" transform="translate(-307.085 -259.18)" fill="#2f2e41"/>
    <path id="Path_113" data-name="Path 113" d="M484.629,216.982l9.322,4.874a2.665,2.665,0,0,1,1.674,2.6l2.428,9.716,8.543,18.084s2.226,9.624-2.022,18.711-13.65,31.74-13.65,31.74c-6.132,14.688-56.468,3.345-43.35-9.152,1.561-1.487,10.333-14.047,13.543-14.769l7.876-45.068a16.35,16.35,0,0,1,7.949-11.467,4.941,4.941,0,0,1,3.233-.92C482,221.758,482.865,217.62,484.629,216.982Z" transform="translate(-311.601 -181.055)" fill="#2699fb"/>
    <path id="Path_114" data-name="Path 114" d="M626.855,322.1a6.668,6.668,0,0,1-9.581-3.574L563.6,314.9l6.716-10.322,51.448,5.219a6.7,6.7,0,0,1,5.088,12.305Z" transform="translate(-364.387 -226.457)" fill="#ffb6b6"/>
    <path id="Path_115" data-name="Path 115" d="M502.686,243.987s-8.147,2.519-6.206,12.086,26.432,27.617,30.292,30.645,35.986-1.053,35.986-1.053l8.3-10.582-31.287-4.424Z" transform="translate(-333.586 -195.052)" fill="#2699fb"/>
    <path id="Path_116" data-name="Path 116" d="M510.66,159.705c-2.15,1.059-4.586-.476-6.467-2l.673.57c-3.265,3.242-4.759,7.874-5.465,12.426s-.744,9.19-1.647,13.706-2.828,9.055-6.482,11.851c-4.894,3.744-11.7,3.577-17.764,2.507l-.237-.043a36.954,36.954,0,0,0,1.8-14.67,33.6,33.6,0,0,1-7.93,13.3,77.137,77.137,0,0,1-11.757-4.148c-2.459-1.1-5.111-2.615-5.817-5.216-.708-2.582.846-5.313,2.944-6.969s4.684-2.536,7.081-3.725,4.756-2.861,5.694-5.365c2.162-5.762-4.233-12.282-1.825-17.948,1.187-2.787,4.15-4.326,6.938-5.518a102.653,102.653,0,0,1,13.09-4.566c3.916-1.076,8.008-1.923,12.016-1.286s7.952,3.031,9.43,6.815c2.411.787,4.97,1.676,6.533,3.682S512.936,158.586,510.66,159.705Z" transform="translate(-313.323 -142.393)" fill="#2f2e41"/>
    <rect id="Rectangle_68" data-name="Rectangle 68" width="81.276" height="0.963" transform="translate(32.589 262.074)" fill="#3f3d56"/>
    <rect id="Rectangle_69" data-name="Rectangle 69" width="81.276" height="0.963" transform="translate(32.589 271.708)" fill="#3f3d56"/>
    <rect id="Rectangle_70" data-name="Rectangle 70" width="81.276" height="0.963" transform="translate(306.548 262.074)" fill="#3f3d56"/>
    <rect id="Rectangle_71" data-name="Rectangle 71" width="81.276" height="0.963" transform="translate(306.548 271.708)" fill="#3f3d56"/>
    <ellipse id="Ellipse_56" data-name="Ellipse 56" cx="5.539" cy="8.429" rx="5.539" ry="8.429" transform="translate(277.027 132.303) rotate(-20.288)" fill="#2699fb"/>
  </g>
</svg>
